<mxfile host="app.diagrams.net" agent="Mozilla/5.0 (Windows NT 10.0; Win64; x64) AppleWebKit/537.36 (KHTML, like Gecko) Chrome/141.0.0.0 Safari/537.36 Edg/141.0.0.0" version="28.2.7">
  <diagram name="페이지-1" id="aU8TRvHDVID5DKgr3Tc-">
    <mxGraphModel dx="2069" dy="1353" grid="1" gridSize="10" guides="1" tooltips="1" connect="1" arrows="1" fold="1" page="1" pageScale="1" pageWidth="827" pageHeight="1169" math="0" shadow="0">
      <root>
        <mxCell id="0" />
        <mxCell id="1" parent="0" />
        <mxCell id="JiStPXWFKOz-2N4WFH8a-71" value="" style="edgeStyle=orthogonalEdgeStyle;rounded=0;orthogonalLoop=1;jettySize=auto;html=1;endArrow=none;endFill=0;" edge="1" parent="1" source="JiStPXWFKOz-2N4WFH8a-3" target="JiStPXWFKOz-2N4WFH8a-12">
          <mxGeometry relative="1" as="geometry" />
        </mxCell>
        <mxCell id="JiStPXWFKOz-2N4WFH8a-3" value="MEMBER" style="rounded=0;whiteSpace=wrap;html=1;fontSize=14;" vertex="1" parent="1">
          <mxGeometry x="210" y="472.5" width="130" height="35" as="geometry" />
        </mxCell>
        <mxCell id="JiStPXWFKOz-2N4WFH8a-72" value="" style="edgeStyle=orthogonalEdgeStyle;rounded=0;orthogonalLoop=1;jettySize=auto;html=1;endArrow=none;endFill=0;" edge="1" parent="1" source="JiStPXWFKOz-2N4WFH8a-12" target="JiStPXWFKOz-2N4WFH8a-19">
          <mxGeometry relative="1" as="geometry" />
        </mxCell>
        <mxCell id="JiStPXWFKOz-2N4WFH8a-12" value="로그인" style="rhombus;whiteSpace=wrap;html=1;" vertex="1" parent="1">
          <mxGeometry x="425" y="450" width="80" height="80" as="geometry" />
        </mxCell>
        <mxCell id="JiStPXWFKOz-2N4WFH8a-66" value="" style="edgeStyle=orthogonalEdgeStyle;rounded=0;orthogonalLoop=1;jettySize=auto;html=1;endArrow=none;endFill=0;" edge="1" parent="1" source="JiStPXWFKOz-2N4WFH8a-13" target="JiStPXWFKOz-2N4WFH8a-20">
          <mxGeometry relative="1" as="geometry">
            <Array as="points">
              <mxPoint x="280" y="680" />
              <mxPoint x="280" y="680" />
            </Array>
          </mxGeometry>
        </mxCell>
        <mxCell id="JiStPXWFKOz-2N4WFH8a-67" value="" style="edgeStyle=orthogonalEdgeStyle;rounded=0;orthogonalLoop=1;jettySize=auto;html=1;endArrow=none;endFill=0;" edge="1" parent="1" source="JiStPXWFKOz-2N4WFH8a-13" target="JiStPXWFKOz-2N4WFH8a-3">
          <mxGeometry relative="1" as="geometry">
            <Array as="points">
              <mxPoint x="280" y="520" />
              <mxPoint x="280" y="520" />
            </Array>
          </mxGeometry>
        </mxCell>
        <mxCell id="JiStPXWFKOz-2N4WFH8a-13" value="동의" style="rhombus;whiteSpace=wrap;html=1;" vertex="1" parent="1">
          <mxGeometry x="240" y="560" width="80" height="80" as="geometry" />
        </mxCell>
        <mxCell id="JiStPXWFKOz-2N4WFH8a-70" value="" style="edgeStyle=orthogonalEdgeStyle;rounded=0;orthogonalLoop=1;jettySize=auto;html=1;endArrow=none;endFill=0;" edge="1" parent="1" source="JiStPXWFKOz-2N4WFH8a-14" target="JiStPXWFKOz-2N4WFH8a-16">
          <mxGeometry relative="1" as="geometry" />
        </mxCell>
        <mxCell id="JiStPXWFKOz-2N4WFH8a-14" value="포함" style="rhombus;whiteSpace=wrap;html=1;" vertex="1" parent="1">
          <mxGeometry x="425" y="667.5" width="80" height="80" as="geometry" />
        </mxCell>
        <mxCell id="JiStPXWFKOz-2N4WFH8a-68" value="" style="edgeStyle=orthogonalEdgeStyle;rounded=0;orthogonalLoop=1;jettySize=auto;html=1;endArrow=none;endFill=0;" edge="1" parent="1" source="JiStPXWFKOz-2N4WFH8a-15" target="JiStPXWFKOz-2N4WFH8a-3">
          <mxGeometry relative="1" as="geometry">
            <Array as="points">
              <mxPoint x="280" y="460" />
              <mxPoint x="280" y="460" />
            </Array>
          </mxGeometry>
        </mxCell>
        <mxCell id="JiStPXWFKOz-2N4WFH8a-69" value="" style="edgeStyle=orthogonalEdgeStyle;rounded=0;orthogonalLoop=1;jettySize=auto;html=1;endArrow=none;endFill=0;" edge="1" parent="1" source="JiStPXWFKOz-2N4WFH8a-15" target="JiStPXWFKOz-2N4WFH8a-21">
          <mxGeometry relative="1" as="geometry" />
        </mxCell>
        <mxCell id="JiStPXWFKOz-2N4WFH8a-15" value="SNS 연동" style="rhombus;whiteSpace=wrap;html=1;" vertex="1" parent="1">
          <mxGeometry x="240" y="340" width="80" height="80" as="geometry" />
        </mxCell>
        <mxCell id="JiStPXWFKOz-2N4WFH8a-16" value="&lt;span style=&quot;font-size: 12px;&quot;&gt;TERMS&lt;/span&gt;" style="rounded=0;whiteSpace=wrap;html=1;fontSize=14;" vertex="1" parent="1">
          <mxGeometry x="585" y="690" width="130" height="35" as="geometry" />
        </mxCell>
        <mxCell id="JiStPXWFKOz-2N4WFH8a-17" value="&lt;span style=&quot;font-size: 12px;&quot;&gt;NON_MEMBER&lt;/span&gt;" style="rounded=0;whiteSpace=wrap;html=1;fontSize=14;" vertex="1" parent="1">
          <mxGeometry x="155" y="837.5" width="130" height="35" as="geometry" />
        </mxCell>
        <mxCell id="JiStPXWFKOz-2N4WFH8a-18" value="&lt;span style=&quot;font-size: 12px;&quot;&gt;MEMBER_AUTH&lt;/span&gt;" style="rounded=0;whiteSpace=wrap;html=1;fontSize=14;" vertex="1" parent="1">
          <mxGeometry x="585" y="837.5" width="130" height="35" as="geometry" />
        </mxCell>
        <mxCell id="JiStPXWFKOz-2N4WFH8a-19" value="MEMBER_LOGIN_HISTORY" style="rounded=0;whiteSpace=wrap;html=1;fontSize=14;" vertex="1" parent="1">
          <mxGeometry x="585" y="472.5" width="220" height="35" as="geometry" />
        </mxCell>
        <mxCell id="JiStPXWFKOz-2N4WFH8a-63" value="" style="edgeStyle=orthogonalEdgeStyle;rounded=0;orthogonalLoop=1;jettySize=auto;html=1;endArrow=none;endFill=0;" edge="1" parent="1" source="JiStPXWFKOz-2N4WFH8a-20" target="JiStPXWFKOz-2N4WFH8a-14">
          <mxGeometry relative="1" as="geometry" />
        </mxCell>
        <mxCell id="JiStPXWFKOz-2N4WFH8a-20" value="&lt;span style=&quot;font-size: 12px;&quot;&gt;MEMBER_TERMS_AGREE&lt;/span&gt;" style="rounded=0;whiteSpace=wrap;html=1;fontSize=14;" vertex="1" parent="1">
          <mxGeometry x="140" y="690" width="220" height="35" as="geometry" />
        </mxCell>
        <mxCell id="JiStPXWFKOz-2N4WFH8a-21" value="&lt;span style=&quot;font-size: 12px;&quot;&gt;SNS_MEMBER&lt;/span&gt;" style="rounded=0;whiteSpace=wrap;html=1;fontSize=14;" vertex="1" parent="1">
          <mxGeometry x="215" y="250" width="130" height="35" as="geometry" />
        </mxCell>
        <mxCell id="JiStPXWFKOz-2N4WFH8a-22" value="&lt;u&gt;MEM_ID&lt;/u&gt;" style="ellipse;whiteSpace=wrap;html=1;" vertex="1" parent="1">
          <mxGeometry x="-80" y="330" width="120" height="32.5" as="geometry" />
        </mxCell>
        <mxCell id="JiStPXWFKOz-2N4WFH8a-23" value="&lt;u&gt;RESV_ID&lt;/u&gt;" style="ellipse;whiteSpace=wrap;html=1;" vertex="1" parent="1">
          <mxGeometry x="-80" y="957.5" width="120" height="32.5" as="geometry" />
        </mxCell>
        <mxCell id="JiStPXWFKOz-2N4WFH8a-24" value="&lt;u&gt;AUTH_ID&lt;/u&gt;" style="ellipse;whiteSpace=wrap;html=1;" vertex="1" parent="1">
          <mxGeometry x="585" y="957.5" width="120" height="32.5" as="geometry" />
        </mxCell>
        <mxCell id="JiStPXWFKOz-2N4WFH8a-25" value="&lt;u&gt;HISTORY_ID&lt;/u&gt;" style="ellipse;whiteSpace=wrap;html=1;" vertex="1" parent="1">
          <mxGeometry x="520" y="307.5" width="120" height="32.5" as="geometry" />
        </mxCell>
        <mxCell id="JiStPXWFKOz-2N4WFH8a-26" value="&lt;u&gt;SNS_ID&lt;/u&gt;" style="ellipse;whiteSpace=wrap;html=1;" vertex="1" parent="1">
          <mxGeometry x="10" y="140" width="120" height="32.5" as="geometry" />
        </mxCell>
        <mxCell id="JiStPXWFKOz-2N4WFH8a-27" value="&lt;u&gt;TERMS_ID&lt;/u&gt;" style="ellipse;whiteSpace=wrap;html=1;" vertex="1" parent="1">
          <mxGeometry x="827" y="607.5" width="120" height="32.5" as="geometry" />
        </mxCell>
        <mxCell id="JiStPXWFKOz-2N4WFH8a-28" value="&lt;u&gt;MEMBER_ID_FK&lt;/u&gt;" style="ellipse;whiteSpace=wrap;html=1;" vertex="1" parent="1">
          <mxGeometry x="-80" y="657.5" width="120" height="32.5" as="geometry" />
        </mxCell>
        <mxCell id="JiStPXWFKOz-2N4WFH8a-29" value="&lt;u&gt;TERMS_ID_FK&lt;/u&gt;" style="ellipse;whiteSpace=wrap;html=1;" vertex="1" parent="1">
          <mxGeometry x="-80" y="690" width="120" height="32.5" as="geometry" />
        </mxCell>
        <mxCell id="JiStPXWFKOz-2N4WFH8a-30" value="AGREED_AT" style="ellipse;whiteSpace=wrap;html=1;" vertex="1" parent="1">
          <mxGeometry x="-80" y="722.5" width="120" height="32.5" as="geometry" />
        </mxCell>
        <mxCell id="JiStPXWFKOz-2N4WFH8a-34" value="MEM_PW" style="ellipse;whiteSpace=wrap;html=1;" vertex="1" parent="1">
          <mxGeometry x="-80" y="362.5" width="120" height="32.5" as="geometry" />
        </mxCell>
        <mxCell id="JiStPXWFKOz-2N4WFH8a-35" value="MEM_PHONE" style="ellipse;whiteSpace=wrap;html=1;" vertex="1" parent="1">
          <mxGeometry x="-80" y="395" width="120" height="32.5" as="geometry" />
        </mxCell>
        <mxCell id="JiStPXWFKOz-2N4WFH8a-36" value="MEM_EMAIL" style="ellipse;whiteSpace=wrap;html=1;" vertex="1" parent="1">
          <mxGeometry x="-80" y="427.5" width="120" height="32.5" as="geometry" />
        </mxCell>
        <mxCell id="JiStPXWFKOz-2N4WFH8a-37" value="MEM_BIRTH" style="ellipse;whiteSpace=wrap;html=1;" vertex="1" parent="1">
          <mxGeometry x="-80" y="492.5" width="120" height="32.5" as="geometry" />
        </mxCell>
        <mxCell id="JiStPXWFKOz-2N4WFH8a-38" value="MEM_NM" style="ellipse;whiteSpace=wrap;html=1;" vertex="1" parent="1">
          <mxGeometry x="-80" y="460" width="120" height="32.5" as="geometry" />
        </mxCell>
        <mxCell id="JiStPXWFKOz-2N4WFH8a-39" value="JOIN_DT" style="ellipse;whiteSpace=wrap;html=1;" vertex="1" parent="1">
          <mxGeometry x="-80" y="525" width="120" height="32.5" as="geometry" />
        </mxCell>
        <mxCell id="JiStPXWFKOz-2N4WFH8a-40" value="STATUS_CD" style="ellipse;whiteSpace=wrap;html=1;" vertex="1" parent="1">
          <mxGeometry x="-80" y="557.5" width="120" height="32.5" as="geometry" />
        </mxCell>
        <mxCell id="JiStPXWFKOz-2N4WFH8a-41" value="IS_14_UNDER" style="ellipse;whiteSpace=wrap;html=1;" vertex="1" parent="1">
          <mxGeometry x="-80" y="590" width="120" height="32.5" as="geometry" />
        </mxCell>
        <mxCell id="JiStPXWFKOz-2N4WFH8a-78" value="" style="edgeStyle=orthogonalEdgeStyle;rounded=0;orthogonalLoop=1;jettySize=auto;html=1;endArrow=none;endFill=0;" edge="1" parent="1" source="JiStPXWFKOz-2N4WFH8a-42" target="JiStPXWFKOz-2N4WFH8a-19">
          <mxGeometry relative="1" as="geometry">
            <mxPoint x="700" y="470" as="targetPoint" />
            <Array as="points">
              <mxPoint x="700" y="440" />
              <mxPoint x="700" y="440" />
            </Array>
          </mxGeometry>
        </mxCell>
        <mxCell id="JiStPXWFKOz-2N4WFH8a-42" value="MEMBER_ID_FK" style="ellipse;whiteSpace=wrap;html=1;" vertex="1" parent="1">
          <mxGeometry x="640" y="307.5" width="120" height="32.5" as="geometry" />
        </mxCell>
        <mxCell id="JiStPXWFKOz-2N4WFH8a-43" value="LOGIN_IP" style="ellipse;whiteSpace=wrap;html=1;" vertex="1" parent="1">
          <mxGeometry x="760" y="307.5" width="120" height="32.5" as="geometry" />
        </mxCell>
        <mxCell id="JiStPXWFKOz-2N4WFH8a-44" value="SUCCESS" style="ellipse;whiteSpace=wrap;html=1;" vertex="1" parent="1">
          <mxGeometry x="880" y="307.5" width="120" height="32.5" as="geometry" />
        </mxCell>
        <mxCell id="JiStPXWFKOz-2N4WFH8a-45" value="LOGIN_AT" style="ellipse;whiteSpace=wrap;html=1;" vertex="1" parent="1">
          <mxGeometry x="1000" y="307.5" width="120" height="32.5" as="geometry" />
        </mxCell>
        <mxCell id="JiStPXWFKOz-2N4WFH8a-46" value="MEMBER_ID_FK" style="ellipse;whiteSpace=wrap;html=1;" vertex="1" parent="1">
          <mxGeometry x="130" y="140" width="120" height="32.5" as="geometry" />
        </mxCell>
        <mxCell id="JiStPXWFKOz-2N4WFH8a-47" value="SNS_TYPE" style="ellipse;whiteSpace=wrap;html=1;" vertex="1" parent="1">
          <mxGeometry x="250" y="140" width="120" height="32.5" as="geometry" />
        </mxCell>
        <mxCell id="JiStPXWFKOz-2N4WFH8a-48" value="SNS_UNIQUE_KEY" style="ellipse;whiteSpace=wrap;html=1;" vertex="1" parent="1">
          <mxGeometry x="370" y="140" width="120" height="32.5" as="geometry" />
        </mxCell>
        <mxCell id="JiStPXWFKOz-2N4WFH8a-49" value="LINKED_AT" style="ellipse;whiteSpace=wrap;html=1;" vertex="1" parent="1">
          <mxGeometry x="490" y="140" width="120" height="32.5" as="geometry" />
        </mxCell>
        <mxCell id="JiStPXWFKOz-2N4WFH8a-51" value="TITLE" style="ellipse;whiteSpace=wrap;html=1;" vertex="1" parent="1">
          <mxGeometry x="827" y="640" width="120" height="32.5" as="geometry" />
        </mxCell>
        <mxCell id="JiStPXWFKOz-2N4WFH8a-52" value="TYPE" style="ellipse;whiteSpace=wrap;html=1;" vertex="1" parent="1">
          <mxGeometry x="827" y="672.5" width="120" height="32.5" as="geometry" />
        </mxCell>
        <mxCell id="JiStPXWFKOz-2N4WFH8a-53" value="CONTENT" style="ellipse;whiteSpace=wrap;html=1;" vertex="1" parent="1">
          <mxGeometry x="827" y="705" width="120" height="32.5" as="geometry" />
        </mxCell>
        <mxCell id="JiStPXWFKOz-2N4WFH8a-54" value="VERSION" style="ellipse;whiteSpace=wrap;html=1;" vertex="1" parent="1">
          <mxGeometry x="827" y="737.5" width="120" height="32.5" as="geometry" />
        </mxCell>
        <mxCell id="JiStPXWFKOz-2N4WFH8a-55" value="CREATED_AT" style="ellipse;whiteSpace=wrap;html=1;" vertex="1" parent="1">
          <mxGeometry x="827" y="770" width="120" height="32.5" as="geometry" />
        </mxCell>
        <mxCell id="JiStPXWFKOz-2N4WFH8a-56" value="PHONE" style="ellipse;whiteSpace=wrap;html=1;" vertex="1" parent="1">
          <mxGeometry x="705" y="957.5" width="120" height="32.5" as="geometry" />
        </mxCell>
        <mxCell id="JiStPXWFKOz-2N4WFH8a-57" value="&lt;u&gt;AUTH_ID&lt;/u&gt;" style="ellipse;whiteSpace=wrap;html=1;" vertex="1" parent="1">
          <mxGeometry x="825" y="957.5" width="120" height="32.5" as="geometry" />
        </mxCell>
        <mxCell id="JiStPXWFKOz-2N4WFH8a-58" value="&lt;u&gt;AUTH_ID&lt;/u&gt;" style="ellipse;whiteSpace=wrap;html=1;" vertex="1" parent="1">
          <mxGeometry x="945" y="957.5" width="120" height="32.5" as="geometry" />
        </mxCell>
        <mxCell id="JiStPXWFKOz-2N4WFH8a-73" value="NM_PW" style="ellipse;whiteSpace=wrap;html=1;" vertex="1" parent="1">
          <mxGeometry x="40" y="957.5" width="120" height="32.5" as="geometry" />
        </mxCell>
        <mxCell id="JiStPXWFKOz-2N4WFH8a-74" value="NM_NM" style="ellipse;whiteSpace=wrap;html=1;" vertex="1" parent="1">
          <mxGeometry x="160" y="957.5" width="120" height="32.5" as="geometry" />
        </mxCell>
        <mxCell id="JiStPXWFKOz-2N4WFH8a-75" value="NM_BIRTH" style="ellipse;whiteSpace=wrap;html=1;" vertex="1" parent="1">
          <mxGeometry x="280" y="957.5" width="120" height="32.5" as="geometry" />
        </mxCell>
        <mxCell id="JiStPXWFKOz-2N4WFH8a-76" value="NM_PHONE" style="ellipse;whiteSpace=wrap;html=1;" vertex="1" parent="1">
          <mxGeometry x="400" y="957.5" width="120" height="32.5" as="geometry" />
        </mxCell>
        <mxCell id="JiStPXWFKOz-2N4WFH8a-81" value="" style="endArrow=none;html=1;rounded=0;entryX=0.516;entryY=0.996;entryDx=0;entryDy=0;entryPerimeter=0;exitX=0.523;exitY=-0.007;exitDx=0;exitDy=0;exitPerimeter=0;" edge="1" parent="1" source="JiStPXWFKOz-2N4WFH8a-19" target="JiStPXWFKOz-2N4WFH8a-25">
          <mxGeometry width="50" height="50" relative="1" as="geometry">
            <mxPoint x="705" y="472.5" as="sourcePoint" />
            <mxPoint x="585" y="342.5" as="targetPoint" />
          </mxGeometry>
        </mxCell>
        <mxCell id="JiStPXWFKOz-2N4WFH8a-82" value="" style="endArrow=none;html=1;rounded=0;entryX=0.5;entryY=1;entryDx=0;entryDy=0;exitX=0.524;exitY=-0.02;exitDx=0;exitDy=0;exitPerimeter=0;" edge="1" parent="1" source="JiStPXWFKOz-2N4WFH8a-19" target="JiStPXWFKOz-2N4WFH8a-43">
          <mxGeometry width="50" height="50" relative="1" as="geometry">
            <mxPoint x="680" y="450" as="sourcePoint" />
            <mxPoint x="730" y="400" as="targetPoint" />
          </mxGeometry>
        </mxCell>
        <mxCell id="JiStPXWFKOz-2N4WFH8a-83" value="" style="endArrow=none;html=1;rounded=0;entryX=0.5;entryY=1;entryDx=0;entryDy=0;exitX=0.523;exitY=-0.01;exitDx=0;exitDy=0;exitPerimeter=0;" edge="1" parent="1" source="JiStPXWFKOz-2N4WFH8a-19" target="JiStPXWFKOz-2N4WFH8a-44">
          <mxGeometry width="50" height="50" relative="1" as="geometry">
            <mxPoint x="790" y="400" as="sourcePoint" />
            <mxPoint x="840" y="350" as="targetPoint" />
          </mxGeometry>
        </mxCell>
        <mxCell id="JiStPXWFKOz-2N4WFH8a-84" value="" style="endArrow=none;html=1;rounded=0;entryX=0.5;entryY=1;entryDx=0;entryDy=0;exitX=0.524;exitY=-0.025;exitDx=0;exitDy=0;exitPerimeter=0;" edge="1" parent="1" source="JiStPXWFKOz-2N4WFH8a-19" target="JiStPXWFKOz-2N4WFH8a-45">
          <mxGeometry width="50" height="50" relative="1" as="geometry">
            <mxPoint x="700" y="470" as="sourcePoint" />
            <mxPoint x="910" y="330" as="targetPoint" />
          </mxGeometry>
        </mxCell>
        <mxCell id="JiStPXWFKOz-2N4WFH8a-85" value="" style="endArrow=none;html=1;rounded=0;entryX=0.5;entryY=1;entryDx=0;entryDy=0;exitX=0.5;exitY=0;exitDx=0;exitDy=0;" edge="1" parent="1" source="JiStPXWFKOz-2N4WFH8a-21" target="JiStPXWFKOz-2N4WFH8a-47">
          <mxGeometry width="50" height="50" relative="1" as="geometry">
            <mxPoint x="270" y="290" as="sourcePoint" />
            <mxPoint x="320" y="240" as="targetPoint" />
          </mxGeometry>
        </mxCell>
        <mxCell id="JiStPXWFKOz-2N4WFH8a-87" value="" style="endArrow=none;html=1;rounded=0;exitX=0.5;exitY=0;exitDx=0;exitDy=0;entryX=0.5;entryY=1;entryDx=0;entryDy=0;" edge="1" parent="1" source="JiStPXWFKOz-2N4WFH8a-21" target="JiStPXWFKOz-2N4WFH8a-46">
          <mxGeometry width="50" height="50" relative="1" as="geometry">
            <mxPoint x="250" y="240" as="sourcePoint" />
            <mxPoint x="190" y="190" as="targetPoint" />
          </mxGeometry>
        </mxCell>
        <mxCell id="JiStPXWFKOz-2N4WFH8a-88" value="" style="endArrow=none;html=1;rounded=0;exitX=0.5;exitY=0;exitDx=0;exitDy=0;entryX=0.5;entryY=1;entryDx=0;entryDy=0;" edge="1" parent="1" source="JiStPXWFKOz-2N4WFH8a-21" target="JiStPXWFKOz-2N4WFH8a-26">
          <mxGeometry width="50" height="50" relative="1" as="geometry">
            <mxPoint x="190" y="210" as="sourcePoint" />
            <mxPoint x="90" y="200" as="targetPoint" />
          </mxGeometry>
        </mxCell>
        <mxCell id="JiStPXWFKOz-2N4WFH8a-89" value="" style="endArrow=none;html=1;rounded=0;exitX=0.5;exitY=0;exitDx=0;exitDy=0;entryX=0.5;entryY=1;entryDx=0;entryDy=0;" edge="1" parent="1" source="JiStPXWFKOz-2N4WFH8a-21" target="JiStPXWFKOz-2N4WFH8a-48">
          <mxGeometry width="50" height="50" relative="1" as="geometry">
            <mxPoint x="360" y="230" as="sourcePoint" />
            <mxPoint x="410" y="180" as="targetPoint" />
          </mxGeometry>
        </mxCell>
        <mxCell id="JiStPXWFKOz-2N4WFH8a-90" value="" style="endArrow=none;html=1;rounded=0;entryX=0.5;entryY=1;entryDx=0;entryDy=0;" edge="1" parent="1" target="JiStPXWFKOz-2N4WFH8a-49">
          <mxGeometry width="50" height="50" relative="1" as="geometry">
            <mxPoint x="280" y="250" as="sourcePoint" />
            <mxPoint x="460" y="210" as="targetPoint" />
          </mxGeometry>
        </mxCell>
        <mxCell id="JiStPXWFKOz-2N4WFH8a-91" value="" style="endArrow=none;html=1;rounded=0;exitX=1;exitY=0.5;exitDx=0;exitDy=0;entryX=0;entryY=0.5;entryDx=0;entryDy=0;" edge="1" parent="1" source="JiStPXWFKOz-2N4WFH8a-16" target="JiStPXWFKOz-2N4WFH8a-27">
          <mxGeometry width="50" height="50" relative="1" as="geometry">
            <mxPoint x="770" y="710" as="sourcePoint" />
            <mxPoint x="820" y="660" as="targetPoint" />
          </mxGeometry>
        </mxCell>
        <mxCell id="JiStPXWFKOz-2N4WFH8a-92" value="" style="endArrow=none;html=1;rounded=0;exitX=1;exitY=0.5;exitDx=0;exitDy=0;entryX=0;entryY=0.5;entryDx=0;entryDy=0;" edge="1" parent="1" source="JiStPXWFKOz-2N4WFH8a-16" target="JiStPXWFKOz-2N4WFH8a-51">
          <mxGeometry width="50" height="50" relative="1" as="geometry">
            <mxPoint x="770" y="710" as="sourcePoint" />
            <mxPoint x="820" y="660" as="targetPoint" />
          </mxGeometry>
        </mxCell>
        <mxCell id="JiStPXWFKOz-2N4WFH8a-93" value="" style="endArrow=none;html=1;rounded=0;exitX=1;exitY=0.5;exitDx=0;exitDy=0;entryX=0;entryY=0.5;entryDx=0;entryDy=0;" edge="1" parent="1" source="JiStPXWFKOz-2N4WFH8a-16" target="JiStPXWFKOz-2N4WFH8a-52">
          <mxGeometry width="50" height="50" relative="1" as="geometry">
            <mxPoint x="770" y="710" as="sourcePoint" />
            <mxPoint x="820" y="660" as="targetPoint" />
          </mxGeometry>
        </mxCell>
        <mxCell id="JiStPXWFKOz-2N4WFH8a-94" value="" style="endArrow=none;html=1;rounded=0;exitX=1;exitY=0.5;exitDx=0;exitDy=0;entryX=0;entryY=0.5;entryDx=0;entryDy=0;" edge="1" parent="1" source="JiStPXWFKOz-2N4WFH8a-16" target="JiStPXWFKOz-2N4WFH8a-53">
          <mxGeometry width="50" height="50" relative="1" as="geometry">
            <mxPoint x="770" y="710" as="sourcePoint" />
            <mxPoint x="820" y="660" as="targetPoint" />
          </mxGeometry>
        </mxCell>
        <mxCell id="JiStPXWFKOz-2N4WFH8a-95" value="" style="endArrow=none;html=1;rounded=0;entryX=0;entryY=0.5;entryDx=0;entryDy=0;exitX=1;exitY=0.5;exitDx=0;exitDy=0;" edge="1" parent="1" source="JiStPXWFKOz-2N4WFH8a-16" target="JiStPXWFKOz-2N4WFH8a-54">
          <mxGeometry width="50" height="50" relative="1" as="geometry">
            <mxPoint x="770" y="710" as="sourcePoint" />
            <mxPoint x="820" y="660" as="targetPoint" />
          </mxGeometry>
        </mxCell>
        <mxCell id="JiStPXWFKOz-2N4WFH8a-96" value="" style="endArrow=none;html=1;rounded=0;exitX=1;exitY=0.5;exitDx=0;exitDy=0;entryX=0;entryY=0.5;entryDx=0;entryDy=0;" edge="1" parent="1" source="JiStPXWFKOz-2N4WFH8a-16" target="JiStPXWFKOz-2N4WFH8a-55">
          <mxGeometry width="50" height="50" relative="1" as="geometry">
            <mxPoint x="770" y="710" as="sourcePoint" />
            <mxPoint x="820" y="660" as="targetPoint" />
          </mxGeometry>
        </mxCell>
        <mxCell id="JiStPXWFKOz-2N4WFH8a-97" value="" style="endArrow=none;html=1;rounded=0;entryX=0;entryY=0.5;entryDx=0;entryDy=0;exitX=1;exitY=0.5;exitDx=0;exitDy=0;" edge="1" parent="1" source="JiStPXWFKOz-2N4WFH8a-28" target="JiStPXWFKOz-2N4WFH8a-20">
          <mxGeometry width="50" height="50" relative="1" as="geometry">
            <mxPoint x="60" y="740" as="sourcePoint" />
            <mxPoint x="110" y="690" as="targetPoint" />
          </mxGeometry>
        </mxCell>
        <mxCell id="JiStPXWFKOz-2N4WFH8a-98" value="" style="endArrow=none;html=1;rounded=0;exitX=1;exitY=0.5;exitDx=0;exitDy=0;entryX=0;entryY=0.5;entryDx=0;entryDy=0;" edge="1" parent="1" source="JiStPXWFKOz-2N4WFH8a-29" target="JiStPXWFKOz-2N4WFH8a-20">
          <mxGeometry width="50" height="50" relative="1" as="geometry">
            <mxPoint x="60" y="740" as="sourcePoint" />
            <mxPoint x="110" y="690" as="targetPoint" />
          </mxGeometry>
        </mxCell>
        <mxCell id="JiStPXWFKOz-2N4WFH8a-100" value="" style="endArrow=none;html=1;rounded=0;entryX=0;entryY=0.5;entryDx=0;entryDy=0;exitX=1;exitY=0.5;exitDx=0;exitDy=0;" edge="1" parent="1" source="JiStPXWFKOz-2N4WFH8a-30" target="JiStPXWFKOz-2N4WFH8a-20">
          <mxGeometry width="50" height="50" relative="1" as="geometry">
            <mxPoint x="60" y="740" as="sourcePoint" />
            <mxPoint x="110" y="690" as="targetPoint" />
          </mxGeometry>
        </mxCell>
        <mxCell id="JiStPXWFKOz-2N4WFH8a-101" value="" style="endArrow=none;html=1;rounded=0;entryX=0;entryY=0.5;entryDx=0;entryDy=0;exitX=1;exitY=0.5;exitDx=0;exitDy=0;" edge="1" parent="1" source="JiStPXWFKOz-2N4WFH8a-22" target="JiStPXWFKOz-2N4WFH8a-3">
          <mxGeometry width="50" height="50" relative="1" as="geometry">
            <mxPoint x="120" y="540" as="sourcePoint" />
            <mxPoint x="170" y="490" as="targetPoint" />
          </mxGeometry>
        </mxCell>
        <mxCell id="JiStPXWFKOz-2N4WFH8a-102" value="" style="endArrow=none;html=1;rounded=0;entryX=0;entryY=0.5;entryDx=0;entryDy=0;exitX=1;exitY=0.5;exitDx=0;exitDy=0;" edge="1" parent="1" source="JiStPXWFKOz-2N4WFH8a-34" target="JiStPXWFKOz-2N4WFH8a-3">
          <mxGeometry width="50" height="50" relative="1" as="geometry">
            <mxPoint x="120" y="540" as="sourcePoint" />
            <mxPoint x="170" y="490" as="targetPoint" />
          </mxGeometry>
        </mxCell>
        <mxCell id="JiStPXWFKOz-2N4WFH8a-103" value="" style="endArrow=none;html=1;rounded=0;entryX=0;entryY=0.5;entryDx=0;entryDy=0;exitX=1;exitY=0.5;exitDx=0;exitDy=0;" edge="1" parent="1" source="JiStPXWFKOz-2N4WFH8a-35" target="JiStPXWFKOz-2N4WFH8a-3">
          <mxGeometry width="50" height="50" relative="1" as="geometry">
            <mxPoint x="120" y="540" as="sourcePoint" />
            <mxPoint x="170" y="490" as="targetPoint" />
          </mxGeometry>
        </mxCell>
        <mxCell id="JiStPXWFKOz-2N4WFH8a-104" value="" style="endArrow=none;html=1;rounded=0;exitX=1;exitY=0.5;exitDx=0;exitDy=0;" edge="1" parent="1" source="JiStPXWFKOz-2N4WFH8a-36">
          <mxGeometry width="50" height="50" relative="1" as="geometry">
            <mxPoint x="40" y="440" as="sourcePoint" />
            <mxPoint x="210" y="490" as="targetPoint" />
          </mxGeometry>
        </mxCell>
        <mxCell id="JiStPXWFKOz-2N4WFH8a-105" value="" style="endArrow=none;html=1;rounded=0;exitX=1;exitY=0.5;exitDx=0;exitDy=0;" edge="1" parent="1" source="JiStPXWFKOz-2N4WFH8a-38">
          <mxGeometry width="50" height="50" relative="1" as="geometry">
            <mxPoint x="110" y="520" as="sourcePoint" />
            <mxPoint x="210" y="490" as="targetPoint" />
          </mxGeometry>
        </mxCell>
        <mxCell id="JiStPXWFKOz-2N4WFH8a-106" value="" style="endArrow=none;html=1;rounded=0;entryX=0;entryY=0.5;entryDx=0;entryDy=0;exitX=1;exitY=0.5;exitDx=0;exitDy=0;" edge="1" parent="1" source="JiStPXWFKOz-2N4WFH8a-37" target="JiStPXWFKOz-2N4WFH8a-3">
          <mxGeometry width="50" height="50" relative="1" as="geometry">
            <mxPoint x="80" y="510" as="sourcePoint" />
            <mxPoint x="130" y="460" as="targetPoint" />
          </mxGeometry>
        </mxCell>
        <mxCell id="JiStPXWFKOz-2N4WFH8a-107" value="" style="endArrow=none;html=1;rounded=0;entryX=0;entryY=0.5;entryDx=0;entryDy=0;exitX=1;exitY=0.5;exitDx=0;exitDy=0;" edge="1" parent="1" source="JiStPXWFKOz-2N4WFH8a-39" target="JiStPXWFKOz-2N4WFH8a-3">
          <mxGeometry width="50" height="50" relative="1" as="geometry">
            <mxPoint x="80" y="510" as="sourcePoint" />
            <mxPoint x="130" y="460" as="targetPoint" />
          </mxGeometry>
        </mxCell>
        <mxCell id="JiStPXWFKOz-2N4WFH8a-108" value="" style="endArrow=none;html=1;rounded=0;entryX=0;entryY=0.5;entryDx=0;entryDy=0;exitX=1;exitY=0.5;exitDx=0;exitDy=0;" edge="1" parent="1" source="JiStPXWFKOz-2N4WFH8a-40" target="JiStPXWFKOz-2N4WFH8a-3">
          <mxGeometry width="50" height="50" relative="1" as="geometry">
            <mxPoint x="80" y="510" as="sourcePoint" />
            <mxPoint x="130" y="460" as="targetPoint" />
          </mxGeometry>
        </mxCell>
        <mxCell id="JiStPXWFKOz-2N4WFH8a-109" value="" style="endArrow=none;html=1;rounded=0;entryX=0;entryY=0.5;entryDx=0;entryDy=0;exitX=1;exitY=0.5;exitDx=0;exitDy=0;" edge="1" parent="1" source="JiStPXWFKOz-2N4WFH8a-41" target="JiStPXWFKOz-2N4WFH8a-3">
          <mxGeometry width="50" height="50" relative="1" as="geometry">
            <mxPoint x="80" y="510" as="sourcePoint" />
            <mxPoint x="130" y="460" as="targetPoint" />
          </mxGeometry>
        </mxCell>
        <mxCell id="JiStPXWFKOz-2N4WFH8a-110" value="" style="endArrow=none;html=1;rounded=0;entryX=0.5;entryY=1;entryDx=0;entryDy=0;exitX=0.5;exitY=0;exitDx=0;exitDy=0;" edge="1" parent="1" source="JiStPXWFKOz-2N4WFH8a-74" target="JiStPXWFKOz-2N4WFH8a-17">
          <mxGeometry width="50" height="50" relative="1" as="geometry">
            <mxPoint x="90" y="930" as="sourcePoint" />
            <mxPoint x="140" y="880" as="targetPoint" />
          </mxGeometry>
        </mxCell>
        <mxCell id="JiStPXWFKOz-2N4WFH8a-111" value="" style="endArrow=none;html=1;rounded=0;entryX=0.5;entryY=1;entryDx=0;entryDy=0;exitX=0.5;exitY=0;exitDx=0;exitDy=0;" edge="1" parent="1" source="JiStPXWFKOz-2N4WFH8a-73" target="JiStPXWFKOz-2N4WFH8a-17">
          <mxGeometry width="50" height="50" relative="1" as="geometry">
            <mxPoint x="90" y="930" as="sourcePoint" />
            <mxPoint x="140" y="880" as="targetPoint" />
          </mxGeometry>
        </mxCell>
        <mxCell id="JiStPXWFKOz-2N4WFH8a-112" value="" style="endArrow=none;html=1;rounded=0;entryX=0.5;entryY=1;entryDx=0;entryDy=0;exitX=0.5;exitY=0;exitDx=0;exitDy=0;" edge="1" parent="1" source="JiStPXWFKOz-2N4WFH8a-23" target="JiStPXWFKOz-2N4WFH8a-17">
          <mxGeometry width="50" height="50" relative="1" as="geometry">
            <mxPoint x="90" y="930" as="sourcePoint" />
            <mxPoint x="140" y="880" as="targetPoint" />
          </mxGeometry>
        </mxCell>
        <mxCell id="JiStPXWFKOz-2N4WFH8a-113" value="" style="endArrow=none;html=1;rounded=0;entryX=0.5;entryY=1;entryDx=0;entryDy=0;exitX=0.5;exitY=0;exitDx=0;exitDy=0;" edge="1" parent="1" source="JiStPXWFKOz-2N4WFH8a-75" target="JiStPXWFKOz-2N4WFH8a-17">
          <mxGeometry width="50" height="50" relative="1" as="geometry">
            <mxPoint x="300" y="950" as="sourcePoint" />
            <mxPoint x="350" y="900" as="targetPoint" />
          </mxGeometry>
        </mxCell>
        <mxCell id="JiStPXWFKOz-2N4WFH8a-114" value="" style="endArrow=none;html=1;rounded=0;entryX=0.5;entryY=1;entryDx=0;entryDy=0;exitX=0.5;exitY=0;exitDx=0;exitDy=0;" edge="1" parent="1" source="JiStPXWFKOz-2N4WFH8a-76" target="JiStPXWFKOz-2N4WFH8a-17">
          <mxGeometry width="50" height="50" relative="1" as="geometry">
            <mxPoint x="300" y="950" as="sourcePoint" />
            <mxPoint x="350" y="900" as="targetPoint" />
          </mxGeometry>
        </mxCell>
        <mxCell id="JiStPXWFKOz-2N4WFH8a-115" value="" style="endArrow=none;html=1;rounded=0;entryX=0.5;entryY=1;entryDx=0;entryDy=0;exitX=0.5;exitY=0;exitDx=0;exitDy=0;" edge="1" parent="1" source="JiStPXWFKOz-2N4WFH8a-24" target="JiStPXWFKOz-2N4WFH8a-18">
          <mxGeometry width="50" height="50" relative="1" as="geometry">
            <mxPoint x="670" y="950" as="sourcePoint" />
            <mxPoint x="720" y="900" as="targetPoint" />
          </mxGeometry>
        </mxCell>
        <mxCell id="JiStPXWFKOz-2N4WFH8a-116" value="" style="endArrow=none;html=1;rounded=0;entryX=0.5;entryY=1;entryDx=0;entryDy=0;exitX=0.5;exitY=0;exitDx=0;exitDy=0;" edge="1" parent="1" source="JiStPXWFKOz-2N4WFH8a-56" target="JiStPXWFKOz-2N4WFH8a-18">
          <mxGeometry width="50" height="50" relative="1" as="geometry">
            <mxPoint x="670" y="950" as="sourcePoint" />
            <mxPoint x="720" y="900" as="targetPoint" />
          </mxGeometry>
        </mxCell>
        <mxCell id="JiStPXWFKOz-2N4WFH8a-117" value="" style="endArrow=none;html=1;rounded=0;exitX=0.5;exitY=1;exitDx=0;exitDy=0;entryX=0.5;entryY=0;entryDx=0;entryDy=0;" edge="1" parent="1" source="JiStPXWFKOz-2N4WFH8a-18" target="JiStPXWFKOz-2N4WFH8a-57">
          <mxGeometry width="50" height="50" relative="1" as="geometry">
            <mxPoint x="760" y="930" as="sourcePoint" />
            <mxPoint x="780" y="880" as="targetPoint" />
          </mxGeometry>
        </mxCell>
        <mxCell id="JiStPXWFKOz-2N4WFH8a-118" value="" style="endArrow=none;html=1;rounded=0;entryX=0.5;entryY=1;entryDx=0;entryDy=0;exitX=0.5;exitY=0;exitDx=0;exitDy=0;" edge="1" parent="1" source="JiStPXWFKOz-2N4WFH8a-58" target="JiStPXWFKOz-2N4WFH8a-18">
          <mxGeometry width="50" height="50" relative="1" as="geometry">
            <mxPoint x="950" y="940" as="sourcePoint" />
            <mxPoint x="810" y="880" as="targetPoint" />
          </mxGeometry>
        </mxCell>
      </root>
    </mxGraphModel>
  </diagram>
</mxfile>
